<?xml version="1.0" standalone="no"?>
<!DOCTYPE svg PUBLIC "-//W3C//DTD SVG 20010904//EN"
 "http://www.w3.org/TR/2001/REC-SVG-20010904/DTD/svg10.dtd">
<svg version="1.0" xmlns="http://www.w3.org/2000/svg"
 width="500.000000pt" height="500.000000pt" viewBox="0 0 500.000000 500.000000"
 preserveAspectRatio="xMidYMid meet">
<metadata>
Created by potrace 1.11, written by Peter Selinger 2001-2013
</metadata>
<g transform="translate(0.000000,500.000000) scale(0.100000,-0.100000)"
fill="#000000" stroke="none">
<path d="M1540 4939 c-30 -33 -105 -93 -166 -133 -110 -74 -169 -130 -275
-262 -62 -77 -78 -101 -60 -90 6 4 37 40 68 79 99 124 234 244 307 270 18 7
18 7 0 -20 -10 -16 -46 -74 -80 -130 -34 -56 -80 -123 -103 -150 -22 -26 -61
-88 -85 -138 -53 -110 -130 -239 -121 -205 4 14 30 73 58 132 48 98 50 105 23
80 -50 -47 -185 -234 -225 -312 -96 -184 -147 -344 -244 -770 -9 -36 -16 -56
-16 -44 -1 30 36 234 65 348 13 55 22 101 20 104 -10 9 -73 -268 -100 -443
-33 -212 -87 -732 -85 -820 2 -53 2 -50 20 85 19 150 117 529 154 600 8 14 18
46 24 72 12 50 72 221 76 216 1 -2 -6 -51 -16 -109 -22 -128 -39 -415 -34
-554 l4 -100 -14 65 c-9 36 -19 144 -24 240 -8 168 -8 171 -10 65 -4 -160 -2
-187 20 -325 18 -112 91 -389 109 -415 4 -5 27 -62 51 -125 42 -110 44 -120
47 -242 3 -122 3 -129 -21 -160 -102 -137 -304 -538 -372 -737 -43 -127 -47
-135 -103 -190 -72 -70 -194 -217 -269 -323 -106 -151 -163 -300 -163 -424 l0
-74 33 0 c31 0 33 3 59 73 41 109 121 235 238 375 58 69 110 127 116 129 8 3
13 -22 16 -74 4 -71 2 -83 -23 -133 -50 -98 -97 -270 -99 -357 0 -10 51 -13
220 -13 l220 0 1 88 c1 48 4 98 8 112 6 21 9 18 15 -24 14 -91 45 -176 64
-175 10 0 40 37 77 95 33 52 80 118 105 145 43 49 46 50 72 38 15 -6 30 -20
33 -30 3 -9 16 -24 29 -33 14 -9 26 -29 31 -52 8 -47 34 -87 51 -80 8 3 14 -1
14 -10 0 -9 -5 -12 -12 -8 -8 5 -9 2 -5 -10 4 -10 7 -26 7 -37 0 -12 7 -19 19
-19 15 0 20 14 31 93 7 50 16 95 19 100 4 4 29 -38 56 -93 l50 -100 87 0 c49
0 88 4 88 8 0 17 -47 51 -97 71 -29 11 -53 17 -54 13 -1 -4 0 -23 0 -42 2 -29
-11 -10 -69 105 -102 201 -123 259 -118 316 5 47 56 170 86 202 33 37 20 76
-48 142 -64 62 -80 93 -71 140 8 46 41 125 52 125 4 0 16 -15 26 -32 11 -18
50 -70 87 -116 70 -87 69 -89 -13 -56 -69 28 -66 6 3 -25 69 -30 178 -51 258
-50 40 1 63 4 51 6 -13 2 -23 7 -22 11 0 4 27 27 60 52 114 86 225 244 196
279 -10 12 -13 10 -15 -14 -2 -15 -15 -46 -29 -68 -23 -37 -26 -39 -36 -21 -6
10 -15 22 -21 27 -7 5 -5 11 6 18 21 12 52 76 69 142 6 26 17 47 23 47 7 0 24
-13 39 -28 26 -27 28 -35 34 -163 6 -130 7 -135 40 -186 18 -29 33 -61 33 -73
0 -29 -44 -114 -98 -187 -41 -56 -52 -64 -126 -95 -75 -31 -89 -33 -191 -32
-89 0 -121 4 -167 22 -82 33 -108 56 -108 97 0 19 -5 37 -11 41 -13 8 -3 -69
12 -98 20 -37 116 -73 249 -94 189 -29 267 -36 286 -26 16 9 14 12 -16 20 -22
6 -27 11 -15 11 12 1 44 25 73 54 52 52 67 82 129 254 12 35 18 41 31 33 34
-19 73 -55 75 -70 2 -8 5 -19 9 -25 16 -27 31 -188 31 -340 0 -144 -4 -187
-25 -282 -23 -104 -24 -113 -7 -113 19 0 28 18 30 58 1 20 2 22 6 7 2 -11 6
-30 9 -42 2 -13 9 -23 16 -23 8 0 9 18 3 63 -7 58 -14 619 -7 583 4 -20 31
-21 38 -1 4 8 1 22 -6 30 -11 13 -8 14 21 7 45 -9 200 -9 220 1 15 7 16 3 8
-35 -14 -73 -10 -137 13 -211 l23 -72 6 91 c4 73 12 104 37 158 35 75 87 146
106 146 7 0 21 9 31 20 13 14 25 18 43 13 20 -5 30 0 46 20 17 21 33 28 80 33
44 5 57 4 52 -4 -10 -17 15 -15 34 3 12 11 2 -26 -30 -117 -42 -117 -68 -210
-56 -197 2 2 22 51 44 109 105 272 158 371 232 425 44 33 91 79 63 61 -7 -4
-13 -5 -13 -2 0 3 39 28 88 57 48 28 107 66 133 85 50 36 145 57 158 35 5 -7
31 -14 60 -16 84 -7 182 -25 205 -37 12 -6 57 -40 102 -75 78 -62 123 -123
125 -171 0 -10 3 -12 6 -5 11 28 -28 120 -77 181 -28 34 -47 62 -42 62 16 0
88 -77 121 -129 51 -79 101 -256 117 -411 19 -182 22 -198 57 -249 37 -54 40
-78 21 -161 -22 -98 -21 -98 -95 -60 -35 18 -86 39 -114 47 -71 20 -287 28
-357 14 l-57 -12 -10 -47 c-16 -75 -34 -223 -27 -229 3 -3 12 -3 21 0 10 5 15
21 16 54 0 26 6 84 12 128 l12 80 114 3 c128 3 270 -17 334 -48 22 -11 48 -20
56 -20 9 0 36 -14 60 -30 24 -17 48 -30 53 -30 4 0 8 -11 8 -25 0 -18 -7 -28
-25 -35 -14 -5 -25 -15 -25 -22 0 -7 -3 -23 -6 -35 l-6 -23 276 0 276 0 -10
26 c-6 14 -10 60 -10 103 0 102 -25 355 -50 506 -25 149 -69 315 -121 456
l-39 107 16 94 c45 255 -21 548 -204 908 -51 102 -126 235 -166 295 -55 82
-81 135 -106 209 l-33 99 13 136 c20 222 18 350 -8 486 -45 238 -89 403 -152
563 -47 120 -142 313 -164 331 -14 12 -16 8 -16 -40 -1 -48 -2 -52 -15 -36 -7
10 -32 77 -55 149 -33 103 -50 140 -83 180 -38 46 -152 146 -169 147 -3 1 3
-21 15 -49 11 -27 18 -53 14 -57 -10 -10 -142 122 -180 180 -21 32 -50 60 -87
81 -66 39 -208 100 -268 116 -59 15 -948 12 -1043 -4 -38 -7 -69 -9 -69 -5 0
4 6 10 13 12 6 3 -38 6 -100 6 l-111 1 -64 -87 c-74 -101 -246 -358 -302 -451
-21 -35 -40 -61 -43 -58 -3 2 12 44 32 91 21 48 38 95 39 104 1 9 9 27 19 41
10 14 42 64 71 111 29 47 83 122 119 167 78 95 77 106 -3 21z m699 35 c14 -2
34 -12 44 -23 19 -19 18 -19 -104 -19 -102 1 -141 -4 -220 -25 -123 -32 -175
-57 -329 -157 l-125 -82 75 77 c104 106 219 191 283 210 100 29 260 37 376 19z
m1062 -197 c34 -24 79 -63 98 -87 l36 -44 -33 20 c-19 10 -56 38 -84 62 -28
24 -68 52 -89 63 -45 23 -48 29 -15 29 13 0 52 -19 87 -43z m54 -260 c20 -37
35 -70 32 -73 -3 -3 -22 10 -44 29 -32 29 -44 33 -75 29 -43 -5 -78 16 -150
90 l-48 48 45 0 c26 0 57 8 75 18 l30 19 49 -46 c27 -25 65 -77 86 -114z
m-385 -64 c74 -83 142 -188 179 -277 39 -94 38 -128 -2 -68 -24 37 -30 41 -47
32 -14 -7 -26 -8 -39 0 -36 19 -112 12 -138 -12 -13 -12 -23 -28 -23 -35 0
-11 -8 -9 -30 7 -16 12 -30 28 -30 36 0 7 -14 26 -30 41 -39 34 -134 177 -122
181 6 2 34 -13 64 -32 30 -19 72 -41 94 -50 l39 -17 -27 27 -26 27 29 24 c16
13 33 22 39 18 16 -10 49 4 60 25 14 26 -1 60 -47 111 -26 28 -31 38 -16 31
11 -7 44 -38 73 -69z m-1630 -18 c0 -3 -7 -35 -16 -70 -15 -60 -15 -67 0 -99
15 -31 15 -41 1 -117 -16 -86 -61 -237 -76 -253 -28 -31 -32 253 -5 354 20 75
73 190 87 190 5 0 9 -2 9 -5z m-193 -172 c-109 -236 -178 -369 -172 -328 11
66 44 154 96 259 99 195 159 251 76 69z m372 -60 c1 -40 10 -45 85 -52 l61 -6
3 -59 c2 -39 -4 -81 -17 -124 -12 -36 -21 -72 -22 -81 0 -12 -4 -10 -16 7 -8
12 -23 22 -32 22 -10 0 -33 16 -52 36 -34 35 -34 36 -37 136 -4 115 5 205 19
173 4 -11 8 -34 8 -52z m1134 30 c3 -16 17 -68 31 -118 31 -108 32 -115 6 -90
-15 15 -80 202 -80 230 0 3 8 5 19 5 12 0 21 -9 24 -27z m-1204 -143 c1 -122
-11 -157 -29 -89 -13 45 -9 177 6 213 7 19 8 19 15 0 4 -10 8 -66 8 -124z
m1151 60 c13 -38 21 -72 17 -76 -9 -9 -8 -11 -45 60 -24 45 -29 62 -21 73 19
22 24 16 49 -57z m-50 -41 c23 -39 40 -72 38 -74 -43 -43 -85 -65 -125 -65
-85 0 -183 66 -231 157 -12 21 -11 22 19 11 57 -20 192 2 255 41 1 1 21 -31
44 -70z m-773 -68 c5 -52 4 -63 -8 -59 -10 3 -15 27 -16 89 -2 65 0 78 8 59 6
-14 13 -54 16 -89z m337 30 c12 -43 13 -57 3 -63 -19 -12 -54 44 -71 114 -6
25 -5 26 23 15 24 -9 32 -21 45 -66z m54 52 c21 -30 52 -99 52 -115 0 -6 -7
-4 -16 3 -19 16 -74 109 -74 127 0 20 18 14 38 -15z m-236 -17 c31 1 34 -4 44
-88 l6 -58 -30 0 c-54 0 -82 17 -102 62 -11 24 -20 56 -20 71 0 27 1 28 38 20
20 -4 49 -7 64 -7z m65 -38 c-3 -7 -5 -2 -5 12 0 14 2 19 5 13 2 -7 2 -19 0
-25z m307 -490 c49 -98 146 -232 244 -338 l80 -87 -101 24 c-173 39 -317 57
-351 44 -16 -6 -27 -13 -24 -16 2 -2 40 -5 83 -6 46 0 153 -16 250 -36 161
-32 173 -36 220 -74 76 -61 184 -133 243 -163 l52 -26 1 -63 c0 -34 2 -81 5
-104 3 -23 1 -44 -3 -46 -5 -3 -32 9 -61 26 -38 23 -52 37 -48 50 3 14 -3 17
-31 17 -19 0 -94 20 -167 44 -72 24 -161 49 -199 56 -50 9 -72 18 -86 36 -24
30 -31 30 -31 -1 0 -24 -2 -24 -47 -19 -27 3 -54 7 -60 10 -7 2 -13 -1 -13 -6
0 -5 9 -11 19 -15 22 -7 34 -42 17 -49 -6 -2 4 -7 22 -11 29 -7 46 -25 23 -25
-5 0 -24 -19 -42 -42 l-33 -41 27 5 c27 5 27 5 11 -13 -10 -11 -14 -22 -10
-26 3 -4 28 17 54 45 38 41 55 52 78 52 l31 0 -10 -62 c-9 -64 5 -204 22 -221
15 -15 51 16 40 33 -5 8 -9 25 -9 38 0 17 6 22 25 22 21 0 25 -5 25 -29 0 -17
5 -33 10 -36 6 -3 10 -17 10 -29 0 -13 8 -30 17 -37 15 -12 16 -12 9 6 -12 28
-26 117 -21 126 13 19 43 -5 49 -39 4 -21 17 -50 31 -66 21 -27 26 -29 49 -18
16 7 29 25 37 52 14 48 31 47 40 -1 4 -19 7 -27 8 -19 2 22 21 39 37 33 17 -6
18 -39 3 -98 -9 -38 -9 -47 5 -61 25 -24 42 -3 60 73 l15 65 -27 25 -27 25 33
-6 c31 -5 32 -5 32 30 0 24 4 34 13 32 7 -3 13 -28 15 -66 2 -51 -2 -72 -23
-114 -20 -39 -23 -53 -13 -59 16 -10 35 6 58 50 l18 36 10 -25 c8 -21 11 -10
17 58 8 88 20 107 62 96 15 -4 22 -17 27 -50 3 -25 14 -54 25 -65 24 -26 26
-108 4 -204 -18 -79 -53 -130 -111 -163 -33 -18 -39 -28 -56 -92 -10 -39 -20
-70 -22 -67 -2 2 7 68 20 148 23 141 41 294 31 274 -3 -5 -16 -75 -29 -155
l-25 -145 -52 -48 c-86 -77 -314 -226 -409 -268 -226 -97 -309 -102 -500 -25
-63 25 -140 56 -170 68 -163 64 -244 112 -328 192 -91 87 -121 139 -167 286
-14 47 -41 118 -60 158 -19 39 -33 72 -31 72 2 0 18 -21 35 -48 34 -54 88
-109 97 -100 10 11 -7 48 -34 75 -15 15 -19 21 -9 14 23 -18 22 -6 -3 34 -11
18 -29 59 -40 91 -19 54 -19 61 -5 111 14 47 18 53 43 53 23 0 28 -5 30 -29 2
-33 21 -94 52 -171 13 -30 30 -72 38 -92 15 -38 26 -45 50 -29 11 6 9 15 -7
42 -12 19 -21 39 -21 44 0 6 8 -3 18 -20 17 -27 52 -64 52 -54 0 2 -11 26 -25
53 -25 50 -33 92 -15 81 6 -3 10 -14 10 -23 0 -22 50 -92 66 -92 21 0 44 42
44 80 0 47 19 20 21 -30 l1 -35 7 30 c4 17 4 34 -1 40 -14 16 -9 25 17 25 14
0 25 -2 25 -4 0 -2 3 -11 6 -20 4 -11 1 -16 -11 -16 -14 0 -16 -6 -11 -27 3
-16 9 -52 12 -81 6 -42 9 -50 20 -41 17 14 19 109 3 159 -25 81 -27 100 -13
100 21 0 17 18 -6 25 -11 3 -38 22 -61 41 -23 19 -85 60 -138 92 -53 31 -99
61 -103 68 -4 6 -16 22 -27 35 l-21 24 6 -30 c6 -30 5 -30 -78 -58 -111 -36
-112 -36 -104 13 6 38 59 193 74 217 6 9 31 9 112 -2 57 -8 105 -13 107 -11 2
2 -4 9 -13 17 -9 8 -51 15 -105 17 -49 3 -89 5 -89 7 0 1 20 61 43 133 l44
132 19 -42 c58 -130 214 -332 425 -552 81 -85 115 -129 144 -186 41 -83 166
-280 178 -280 13 0 7 16 -23 62 -29 43 -84 158 -76 158 2 0 16 -21 31 -46 40
-68 159 -189 209 -213 35 -16 86 -20 86 -5 0 1 -13 17 -28 34 -39 42 -115 187
-101 192 7 2 3 31 -15 88 -16 56 -31 143 -42 255 -25 258 -24 276 34 455 27
86 62 206 78 268 16 61 29 112 30 112 0 0 17 -33 38 -72z m552 -270 c55 -48
114 -144 114 -184 l0 -34 -52 21 c-102 40 -104 42 -146 169 -3 9 6 5 21 -9 32
-29 35 -21 6 18 -22 30 -19 51 6 51 8 0 31 -15 51 -32z m131 -10 c-3 -8 -6 -5
-6 6 -1 11 2 17 5 13 3 -3 4 -12 1 -19z m48 -295 c8 -78 15 -172 15 -208 0
-37 4 -74 9 -83 4 -9 11 -29 15 -44 6 -25 4 -28 -18 -28 -32 0 -36 15 -36 123
0 51 -7 173 -15 272 -8 99 -14 196 -14 215 2 56 27 -85 44 -247z m-280 127
c39 -36 108 -90 153 -120 98 -66 110 -94 20 -49 -110 56 -355 273 -327 290 10
6 25 -2 49 -24 19 -18 67 -62 105 -97z m-2138 68 c-3 -8 -6 -5 -6 6 -1 11 2
17 5 13 3 -3 4 -12 1 -19z m2793 -182 c25 -166 35 -307 20 -284 -21 33 -65
435 -45 416 3 -3 15 -63 25 -132z m-428 26 c5 -5 8 -20 6 -32 -3 -21 -8 -19
-83 35 -125 89 -131 101 -27 52 51 -24 98 -49 104 -55z m-1952 -318 c-5 -153
-14 -346 -20 -429 -5 -82 -14 -280 -20 -440 -7 -159 -13 -291 -15 -293 -2 -2
-7 41 -12 95 -13 161 -9 552 10 773 18 213 59 581 64 576 2 -1 -2 -128 -7
-282z m670 237 c19 -14 36 -26 37 -26 1 -1 10 -19 19 -41 l16 -39 -37 35 c-46
43 -105 117 -85 105 8 -5 31 -20 50 -34z m424 -322 l7 -24 -15 25 c-8 14 -24
57 -36 95 -13 39 -26 74 -31 80 -17 18 -9 44 14 47 21 3 23 -3 38 -98 9 -55
20 -111 23 -125z m-100 136 c48 -162 139 -367 206 -466 33 -48 36 -56 18 -51
-67 17 -231 223 -290 364 -31 73 -58 113 -58 85 0 -7 11 -47 25 -87 14 -40 23
-75 21 -77 -3 -3 -116 249 -116 259 0 3 6 5 13 6 6 1 44 10 82 21 39 10 73 16
76 13 3 -4 13 -34 23 -67z m1490 33 c9 -12 28 -53 42 -91 26 -66 26 -73 14
-138 -14 -81 -54 -198 -75 -219 -13 -12 -15 3 -15 130 0 80 -3 156 -7 170 -6
22 -5 24 10 11 21 -16 21 -16 3 40 -8 24 -17 61 -20 82 -4 31 -2 37 14 37 10
0 26 -10 34 -22z m-1710 -44 c5 -14 4 -15 -9 -4 -17 14 -19 20 -6 20 5 0 12
-7 15 -16z m2386 -155 c0 -9 13 -34 28 -55 52 -73 93 -145 87 -155 -4 -5 -1
-8 6 -7 29 7 253 -471 273 -582 4 -19 -6 1 -22 46 -16 44 -47 113 -70 153 -23
40 -60 118 -82 174 -40 100 -96 197 -114 197 -5 0 -3 -7 4 -15 7 -9 10 -18 7
-21 -3 -3 0 -26 8 -50 13 -45 7 -56 -15 -29 -13 16 -35 21 -25 6 8 -14 35
-209 35 -260 0 -81 -11 -35 -31 122 -19 153 -46 259 -114 446 -18 50 -24 82
-20 100 7 26 8 26 26 -14 10 -22 19 -47 19 -56z m-1510 60 c0 -5 -4 -9 -10 -9
-5 0 -10 7 -10 16 0 8 5 12 10 9 6 -3 10 -10 10 -16z m-1606 -129 c5 -111 5
-113 -9 -70 -15 46 -21 171 -8 183 3 4 7 6 8 5 2 -2 5 -55 9 -118z m466 81 c0
-6 -4 -13 -10 -16 -5 -3 -10 1 -10 9 0 9 5 16 10 16 6 0 10 -4 10 -9z m60 -11
c0 -13 -11 -13 -30 0 -12 8 -11 10 8 10 12 0 22 -4 22 -10z m1650 -268 c19
-171 8 -208 -16 -50 -16 110 -18 197 -3 160 5 -13 13 -63 19 -110z m-2338 31
c10 -15 23 -35 29 -44 14 -19 3 -157 -12 -142 -8 8 -26 82 -49 203 -9 48 -6
46 32 -17z m3582 -403 c57 -109 78 -191 82 -315 3 -98 -20 -255 -36 -255 -10
0 -40 51 -123 210 -66 125 -66 125 -72 225 -6 116 -23 268 -36 339 -5 26 -6
52 -3 58 9 14 137 -164 188 -262z m-1578 -6 c-3 -9 -6 -20 -6 -25 0 -5 -5 -9
-11 -9 -6 0 -23 -8 -37 -18 -33 -23 -252 -125 -258 -120 -2 2 49 34 114 70 64
37 133 78 152 92 41 29 55 32 46 10z m619 -124 c3 -5 14 -10 23 -10 9 0 58
-20 108 -45 86 -41 95 -49 128 -103 19 -32 48 -65 63 -72 15 -8 43 -26 61 -39
18 -13 55 -34 82 -47 72 -33 80 -51 71 -161 -6 -82 -4 -95 13 -119 20 -27 20
-27 -1 -16 -12 7 -40 30 -64 52 -23 22 -46 41 -51 42 -5 2 -11 27 -15 55 -6
52 -6 52 -55 68 -33 12 -62 14 -91 10 -63 -11 -167 -45 -167 -55 0 -5 -24 -20
-54 -34 -30 -14 -57 -30 -61 -36 -7 -11 -180 -119 -370 -230 l-139 -81 60 63
c33 35 69 76 79 91 10 16 36 35 57 44 57 23 152 132 198 228 41 83 74 204 85
312 5 43 11 61 18 57 8 -4 7 -2 0 7 -7 7 -13 17 -13 21 0 11 28 10 35 -2z
m-975 -70 c-8 -5 -19 -10 -25 -10 -5 0 -3 5 5 10 8 5 20 10 25 10 6 0 3 -5 -5
-10z m-932 -30 c26 0 65 5 86 10 43 10 131 -13 407 -107 115 -38 136 -48 132
-63 -3 -12 4 -24 21 -35 26 -17 39 -17 116 1 19 4 33 -1 53 -20 16 -14 33 -26
39 -26 7 0 24 -12 40 -27 l27 -26 -23 -28 c-55 -65 -37 -191 36 -253 l39 -34
-31 -31 c-20 -19 -55 -38 -97 -51 -88 -27 -117 -26 -149 8 -22 23 -26 24 -21
7 2 -11 8 -27 11 -36 6 -14 -6 -21 -66 -38 -40 -12 -79 -24 -86 -26 -7 -3 -17
-16 -24 -29 -9 -20 -8 -30 6 -51 10 -14 24 -29 33 -32 22 -9 118 12 190 42 58
23 67 24 172 16 61 -4 114 -11 118 -15 4 -4 -11 -41 -32 -82 -53 -100 -86
-119 -196 -111 -90 7 -168 32 -189 60 -40 53 -93 106 -118 116 -15 7 -39 29
-54 50 -26 37 -28 46 -28 143 -1 120 -10 171 -39 202 l-21 23 32 -5 31 -5 -38
47 c-22 25 -48 49 -60 52 -11 4 -34 19 -52 34 -17 16 -42 31 -55 35 -13 4 -40
23 -61 41 -20 19 -41 34 -46 34 -5 0 -23 14 -41 30 -18 17 -37 30 -44 30 -15
0 -64 97 -71 140 -3 19 -3 29 1 23 3 -8 25 -13 52 -13z m-110 -49 c95 -62 104
-91 36 -121 -56 -24 -60 -25 -44 -5 7 9 8 15 2 15 -5 0 -17 -11 -26 -25 -9
-13 -50 -47 -90 -75 -41 -27 -78 -55 -82 -61 -9 -14 -1 -10 79 44 72 48 200
107 231 107 13 0 34 -8 46 -18 l22 -18 -63 -39 c-93 -56 -169 -114 -169 -127
0 -6 10 -2 23 9 53 48 190 133 214 133 27 0 93 -36 93 -50 0 -4 -12 -16 -27
-26 -47 -30 -134 -117 -150 -149 -12 -24 -6 -20 27 18 60 68 148 137 175 137
14 0 41 -16 66 -40 41 -39 42 -41 36 -93 -3 -29 -18 -86 -34 -127 -22 -58 -33
-75 -48 -75 -28 0 -30 29 -7 124 11 45 17 81 15 81 -11 0 -43 -93 -49 -144 -7
-54 -5 -59 23 -89 51 -54 51 -73 2 -124 -24 -25 -71 -66 -104 -93 l-60 -48
-60 9 c-56 9 -64 13 -119 70 -75 79 -192 238 -224 303 -13 28 -37 70 -53 93
-37 53 -37 91 -1 168 30 62 156 255 176 267 29 19 84 7 144 -31z m1092 19 c-6
-11 -19 -20 -30 -20 -20 0 -50 -45 -50 -75 0 -8 -4 -15 -10 -15 -16 0 -12 53
6 80 24 36 44 50 71 50 21 0 22 -3 13 -20z m-188 -42 c-7 -7 -12 -21 -12 -31
0 -13 -5 -17 -16 -13 -9 3 -30 6 -47 6 -30 1 -28 3 23 25 66 28 67 28 52 13z
m320 -138 c-43 -39 -104 -56 -143 -39 -43 17 -35 24 23 21 45 -3 60 1 98 27
54 36 66 31 22 -9z m-89 13 c-7 -2 -19 -2 -25 0 -7 3 -2 5 12 5 14 0 19 -2 13
-5z m131 -60 c-8 -35 -20 -48 -28 -34 -4 6 1 22 11 36 23 31 25 31 17 -2z
m-51 -50 c26 -13 34 -32 20 -46 -3 -4 -17 5 -30 19 -19 21 -31 25 -66 22 -48
-3 -55 -20 -12 -28 26 -5 27 -6 11 -19 -15 -12 -21 -11 -48 9 -35 25 -41 21
-58 -42 -20 -71 19 -128 87 -128 38 0 42 -23 6 -28 -64 -10 -123 55 -123 135
0 46 20 77 63 100 67 34 92 36 150 6z m-1912 -104 c-17 -57 -39 -137 -49 -178
-17 -71 -21 -77 -85 -134 -37 -33 -70 -58 -73 -55 -8 9 33 122 73 202 46 92
155 277 160 272 2 -2 -10 -50 -26 -107z m1911 29 c6 -17 -3 -58 -12 -58 -4 0
-13 6 -19 14 -9 11 -9 19 1 35 15 24 24 27 30 9z m-135 -59 c-18 -29 -27 -23
-27 16 0 33 1 34 19 18 16 -13 17 -19 8 -34z m1030 45 c-3 -3 -12 -4 -19 -1
-8 3 -5 6 6 6 11 1 17 -2 13 -5z m-951 -79 c18 -14 17 -14 -13 -15 -25 0 -31
4 -27 15 8 19 15 19 40 0z m584 -149 c0 -2 -12 -11 -27 -20 l-28 -17 24 20
c23 21 31 25 31 17z m-112 -73 c-9 -10 -25 -37 -37 -60 -12 -24 -24 -43 -28
-43 -3 0 -3 3 0 7 4 3 2 12 -4 20 -8 9 -8 17 0 26 6 8 7 18 3 22 -4 5 -1 5 6
1 6 -4 12 -3 12 3 0 6 12 17 28 25 35 20 38 20 20 -1z m-325 -109 c4 -4 -21
-37 -56 -73 -74 -79 -133 -165 -164 -241 -12 -30 -23 -50 -23 -45 0 20 27 111
41 135 14 27 16 31 18 55 0 8 14 21 30 29 16 9 51 45 77 81 45 61 62 74 77 59z
m1946 -287 c11 -67 22 -151 25 -187 l6 -65 -21 55 c-35 94 -72 305 -64 358 l8
47 13 -43 c7 -24 22 -98 33 -165z m-1989 160 c0 -2 -10 -12 -22 -23 l-23 -19
19 23 c18 21 26 27 26 19z m-1543 -40 c13 -18 38 -48 57 -66 l35 -34 -25 -48
c-13 -27 -31 -76 -38 -109 -14 -58 -13 -65 10 -143 14 -45 27 -93 29 -107 3
-14 2 -17 -1 -6 -7 24 -62 71 -83 71 -9 0 -20 10 -26 23 -5 12 -16 20 -23 17
-7 -2 -1 11 14 30 14 19 22 35 16 35 -16 0 -81 -44 -82 -55 0 -11 -137 -185
-146 -185 -2 0 3 15 13 33 14 25 19 67 23 194 6 152 7 164 31 197 33 47 158
186 167 186 4 0 17 -15 29 -33z m-592 -63 c-15 -19 -44 -65 -65 -100 l-38 -65
-6 44 c-4 24 -4 50 -1 58 6 15 114 99 129 99 4 0 -4 -16 -19 -36z m4080 -159
c3 -44 7 -129 9 -190 l5 -110 -31 34 c-29 33 -30 35 -23 100 4 36 9 118 10
181 2 63 4 117 5 120 6 16 21 -66 25 -135z m-2898 -51 c-3 -3 -12 -4 -19 -1
-8 3 -5 6 6 6 11 1 17 -2 13 -5z m-530 -316 c-3 -8 -6 -5 -6 6 -1 11 2 17 5
13 3 -3 4 -12 1 -19z m-358 -49 c-13 -26 -23 -18 -14 10 3 12 11 19 16 16 5
-4 5 -14 -2 -26z m3691 11 c24 -24 25 -30 5 -30 -8 0 -15 -7 -15 -15 0 -8 7
-15 15 -15 8 0 15 -7 15 -15 0 -16 -18 -19 -37 -7 -21 13 -34 61 -23 83 13 24
15 24 40 -1z m-180 1 c0 -5 9 -7 20 -4 12 3 20 0 20 -7 0 -9 6 -8 19 4 31 28
56 17 54 -23 -2 -44 -17 -59 -43 -43 -10 6 -26 9 -35 6 -8 -3 -15 -1 -15 5 0
6 -7 8 -16 4 -9 -3 -20 0 -25 8 -7 11 -9 11 -9 -3 0 -10 -7 -18 -15 -18 -23 0
-20 67 3 73 30 8 42 7 42 -2z m-3163 -23 c-3 -8 -6 -5 -6 6 -1 11 2 17 5 13 3
-3 4 -12 1 -19z"/>
<path d="M2200 3011 c0 -6 16 -11 36 -11 23 0 33 -4 28 -11 -5 -8 5 -9 33 -4
35 5 92 0 193 -20 19 -4 21 -3 10 4 -17 10 -152 36 -242 46 -39 4 -58 3 -58
-4z"/>
<path d="M1503 2818 c42 -28 79 -49 82 -46 6 6 -134 98 -149 98 -6 0 24 -23
67 -52z"/>
<path d="M2258 2843 c7 -3 16 -2 19 1 4 3 -2 6 -13 5 -11 0 -14 -3 -6 -6z"/>
<path d="M2538 2418 c-31 -33 -36 -56 -12 -65 23 -8 36 10 40 56 2 23 2 40 1
40 -1 -1 -14 -15 -29 -31z"/>
<path d="M2596 2364 c-9 -22 3 -32 14 -14 12 19 12 30 1 30 -5 0 -12 -7 -15
-16z"/>
<path d="M2650 2354 c0 -8 5 -12 10 -9 6 3 10 10 10 16 0 5 -4 9 -10 9 -5 0
-10 -7 -10 -16z"/>
<path d="M1517 2343 c-2 -4 -5 -23 -5 -40 l-1 -33 25 18 c27 19 28 55 2 60 -9
2 -18 -1 -21 -5z"/>
<path d="M1630 2334 c0 -8 5 -12 10 -9 6 3 10 10 10 16 0 5 -4 9 -10 9 -5 0
-10 -7 -10 -16z"/>
<path d="M1586 2321 c-4 -7 -5 -15 -2 -18 9 -9 19 4 14 18 -4 11 -6 11 -12 0z"/>
<path d="M1930 1890 c38 -21 60 -25 60 -11 0 10 -54 31 -79 31 -9 -1 0 -9 19
-20z"/>
<path d="M3603 1751 c15 -18 27 -40 27 -49 0 -42 36 -77 99 -95 35 -10 65 -16
68 -14 2 3 -5 8 -16 12 -24 7 -81 70 -81 89 0 13 -45 47 -100 76 l-24 13 27
-32z"/>
<path d="M3880 1571 c0 -9 30 -24 36 -18 2 1 -6 8 -16 15 -11 7 -20 8 -20 3z"/>
<path d="M3240 4954 c110 -59 228 -138 312 -209 82 -70 236 -245 296 -339 66
-101 157 -299 208 -449 25 -73 42 -116 38 -97 -25 134 -155 425 -259 581 -121
179 -350 407 -473 470 -15 8 -57 31 -93 51 -36 21 -77 38 -90 38 -17 0 2 -14
61 -46z"/>
<path d="M766 3904 c-9 -26 -16 -52 -15 -58 0 -6 9 13 20 43 10 30 17 56 15
58 -2 2 -11 -17 -20 -43z"/>
<path d="M4101 3804 c0 -11 3 -14 6 -6 3 7 2 16 -1 19 -3 4 -6 -2 -5 -13z"/>
<path d="M4111 3764 c0 -11 3 -14 6 -6 3 7 2 16 -1 19 -3 4 -6 -2 -5 -13z"/>
<path d="M716 3744 c-4 -14 -5 -28 -3 -31 3 -2 8 8 11 23 4 14 5 28 3 31 -3 2
-8 -8 -11 -23z"/>
<path d="M1300 941 c0 -5 7 -15 17 -22 15 -13 15 -12 4 9 -12 23 -21 28 -21
13z"/>
<path d="M3321 709 c-13 -11 -36 -19 -51 -19 -44 0 -53 -21 -51 -113 1 -46 -3
-96 -9 -111 -9 -25 -8 -28 8 -24 17 5 15 -8 -20 -115 -40 -126 -47 -141 -56
-118 -3 8 -37 61 -76 118 -39 57 -83 125 -98 151 -16 27 -28 39 -28 29 0 -21
41 -105 80 -162 45 -67 45 -67 14 -59 -27 7 -27 7 -21 -34 4 -30 0 -52 -15
-79 -11 -22 -22 -67 -25 -105 l-6 -68 85 0 85 0 23 97 c32 137 156 519 186
572 28 51 27 48 11 54 -7 2 -23 -4 -36 -14z"/>
<path d="M2355 649 c-4 -6 -5 -13 -2 -16 7 -7 27 6 27 18 0 12 -17 12 -25 -2z"/>
<path d="M4201 24 c0 -11 3 -14 6 -6 3 7 2 16 -1 19 -3 4 -6 -2 -5 -13z"/>
</g>
</svg>
